<svg xmlns="http://www.w3.org/2000/svg" width="523.906" height="498.636" viewBox="0 0 523.906 498.636"><g transform="translate(0 672.362)"><path d="M344.271-296.127,179.636-134.691,15-296.127,179.636-457.564Z" transform="translate(0 -54.035)" fill="rgba(68,231,0,0.79)" fill-rule="evenodd"/><path d="M344.271-495.925,179.636-334.489,15-495.925,179.636-657.362Z" transform="translate(0 0)" fill="rgba(255,200,32,0.79)" fill-rule="evenodd"/><path d="M569.938-393.878,405.3-232.442,240.667-393.878,405.3-555.315Z" transform="translate(-61.031 -27.599)" fill="rgba(238,55,202,0.79)" fill-rule="evenodd"/><path d="M393.419-277.5l45.954,45.061L604.008-393.878,439.373-555.315l-44.355,43.494,44.355,43.494-72.727,74.449,72.727,71.314Z" transform="translate(-95.102 -27.599)" fill="none" stroke="rgba(255,0,186,0.33)" stroke-linecap="round" stroke-linejoin="round" stroke-width="30"/><path d="M89.326-336.181,15-263.3,179.636-101.863,298.317-218.238,223.991-291.12l-44.355,43.494Z" transform="translate(0 -86.863)" fill="none" stroke="rgba(49,255,0,0.33)" stroke-linecap="round" stroke-linejoin="round" stroke-width="30"/><path d="M89.326-423.044,15-495.925,179.636-657.362,298.317-540.987l-74.84,72.378L179.636-511.6l-90.31,88.555" transform="translate(0 0)" fill="none" stroke="rgba(255,208,0,0.33)" stroke-linecap="round" stroke-linejoin="round" stroke-width="30"/></g></svg>